<?xml version="1.0" encoding="utf-8"?><svg version="1.1" id="Layer_1" xmlns="http://www.w3.org/2000/svg" xmlns:xlink="http://www.w3.org/1999/xlink" x="0px" y="0px" viewBox="0 0 122.88 92.11" style="enable-background:new 0 0 122.88 92.11" xml:space="preserve"><style type="text/css">.st0{fill-rule:evenodd;clip-rule:evenodd;fill:#CF649A;}</style><g><path class="st0" d="M105.78,52.89c-4.3,0.02-8.02,1.06-11.14,2.59c-1.15-2.28-2.3-4.27-2.5-5.76c-0.22-1.73-0.48-2.78-0.22-4.85 c0.26-2.06,1.46-4.99,1.46-5.23c-0.02-0.22-0.26-1.27-2.74-1.3c-2.47-0.02-4.61,0.48-4.85,1.13c-0.24,0.65-0.72,2.14-1.03,3.67 c-0.43,2.26-4.94,10.25-7.51,14.45c-0.84-1.63-1.56-3.07-1.7-4.22c-0.22-1.73-0.48-2.78-0.22-4.85c0.26-2.06,1.46-4.99,1.46-5.23 c-0.02-0.22-0.26-1.27-2.74-1.3c-2.47-0.02-4.61,0.48-4.85,1.13c-0.24,0.65-0.5,2.18-1.03,3.67c-0.5,1.49-6.5,14.83-8.06,18.31 c-0.79,1.78-1.49,3.19-1.99,4.15c-0.5,0.96-0.02,0.07-0.07,0.17c-0.43,0.82-0.67,1.27-0.67,1.27v0.02c-0.34,0.6-0.7,1.18-0.86,1.18 c-0.12,0-0.36-1.61,0.05-3.82c0.89-4.63,3.05-11.86,3.02-12.12c0-0.12,0.41-1.39-1.39-2.04c-1.75-0.65-2.38,0.43-2.52,0.43 s-0.26,0.38-0.26,0.38s1.94-8.14-3.72-8.14c-3.55,0-8.45,3.86-10.87,7.39c-1.54,0.84-4.8,2.62-8.26,4.51 c-1.32,0.72-2.69,1.49-3.98,2.18l-0.26-0.29C21.46,53.08,8.76,47.9,9.29,38.06c0.19-3.58,1.44-13.01,24.39-24.43 c18.79-9.36,33.84-6.79,36.46-1.08c3.72,8.16-8.04,23.33-27.58,25.51c-7.44,0.84-11.35-2.04-12.34-3.12 c-1.03-1.13-1.18-1.18-1.56-0.96c-0.62,0.34-0.24,1.34,0,1.94c0.58,1.51,2.98,4.2,7.06,5.54c3.58,1.18,12.31,1.82,22.87-2.26 c11.83-4.58,21.07-17.31,18.36-27.94C74.19,0.45,56.24-3.11,39.27,2.92c-10.1,3.6-21.05,9.22-28.92,16.59 C0.99,28.24-0.5,35.87,0.12,39.04c2.18,11.31,17.76,18.67,24,24.12c-0.31,0.17-0.6,0.34-0.86,0.48c-3.12,1.54-15,7.75-17.98,14.33 C1.92,85.41,5.81,90.77,8.4,91.49c8.02,2.23,16.23-1.78,20.67-8.38c4.42-6.6,3.89-15.17,1.85-19.08l-0.07-0.14l2.45-1.44 c1.58-0.94,3.14-1.8,4.51-2.54c-0.77,2.09-1.32,4.56-1.61,8.16c-0.34,4.22,1.39,9.7,3.67,11.86c1.01,0.94,2.21,0.96,2.95,0.96 c2.64,0,3.84-2.18,5.16-4.8c1.63-3.19,3.07-6.89,3.07-6.89s-1.8,10.01,3.12,10.01c1.8,0,3.6-2.33,4.42-3.53v0.02 c0,0,0.05-0.07,0.14-0.24c0.1-0.15,0.2-0.3,0.29-0.46v-0.05c0.72-1.25,2.33-4.1,4.73-8.83c3.1-6.1,6.07-13.73,6.07-13.73 s0.29,1.87,1.18,4.94c0.53,1.82,1.68,3.82,2.57,5.76c-0.72,1.01-1.15,1.58-1.15,1.58l0.02,0.02c-0.58,0.77-1.22,1.58-1.9,2.4 c-2.45,2.93-5.38,6.26-5.76,7.22c-0.46,1.13-0.36,1.97,0.53,2.64c0.65,0.48,1.8,0.58,3.02,0.48c2.21-0.14,3.74-0.7,4.51-1.03 c1.2-0.43,2.57-1.08,3.89-2.04c2.4-1.78,3.86-4.3,3.72-7.66c-0.07-1.85-0.67-3.67-1.42-5.4c0.22-0.31,0.43-0.62,0.65-0.96 c3.79-5.54,6.72-11.64,6.72-11.64s0.29,1.87,1.18,4.94c0.46,1.56,1.37,3.26,2.18,4.94c-3.55,2.9-5.78,6.26-6.55,8.47 c-1.42,4.08-0.31,5.93,1.78,6.36c0.94,0.19,2.28-0.24,3.29-0.67c1.25-0.41,2.76-1.1,4.15-2.14c2.4-1.78,4.7-4.25,4.58-7.58 c-0.07-1.54-0.48-3.05-1.03-4.49c3.02-1.25,6.94-1.97,11.9-1.37c10.68,1.25,12.79,7.92,12.39,10.7c-0.41,2.78-2.64,4.32-3.38,4.8 c-0.74,0.46-0.98,0.62-0.91,0.96c0.1,0.5,0.43,0.48,1.08,0.38c0.89-0.14,5.62-2.28,5.81-7.42 C123.16,60.02,116.89,52.82,105.78,52.89L105.78,52.89L105.78,52.89z M23.41,80.66c-3.53,3.86-8.5,5.33-10.61,4.08 c-2.28-1.32-1.39-7.01,2.95-11.11c2.64-2.5,6.07-4.8,8.33-6.22c0.5-0.31,1.27-0.77,2.18-1.32c0.14-0.1,0.24-0.14,0.24-0.14 c0.17-0.1,0.36-0.22,0.55-0.34C28.66,71.47,27.13,76.6,23.41,80.66L23.41,80.66z M49.21,63.12c-1.22,3-3.82,10.71-5.38,10.27 c-1.34-0.36-2.16-6.19-0.26-11.95c0.96-2.9,3-6.36,4.2-7.7c1.94-2.16,4.06-2.88,4.58-1.99C52.98,52.89,49.98,61.24,49.21,63.12 L49.21,63.12z M70.5,73.29c-0.53,0.26-1.01,0.46-1.22,0.31c-0.17-0.1,0.22-0.46,0.22-0.46s2.66-2.86,3.72-4.18 c0.6-0.77,1.32-1.66,2.09-2.66v0.29C75.3,70.05,71.99,72.36,70.5,73.29L70.5,73.29z M86.92,69.55c-0.38-0.29-0.34-1.18,0.96-3.96 c0.5-1.1,1.66-2.95,3.65-4.7c0.24,0.72,0.38,1.42,0.36,2.06C91.86,67.27,88.79,68.88,86.92,69.55L86.92,69.55L86.92,69.55z"/></g></svg>